<svg width="182" height="156" viewBox="0 0 182 156" fill="none" xmlns="http://www.w3.org/2000/svg">
<path d="M180.962 88.6161L147.494 43.4196C146.805 42.4879 145.907 41.7311 144.872 41.2101C143.837 40.6891 142.695 40.4185 141.536 40.4202H40.4739C39.3153 40.4185 38.1724 40.6891 37.1375 41.2101C36.1026 41.7311 35.2046 42.4879 34.5158 43.4196L1.04761 88.6161V143.694C1.04761 146.691 2.23813 149.565 4.35727 151.684C6.4764 153.803 9.35058 154.993 12.3475 154.993H169.683C172.68 154.993 175.554 153.803 177.673 151.684C179.792 149.565 180.983 146.691 180.983 143.694L180.962 88.6161Z" fill="white"/>
<path d="M169.683 156H12.3272C9.05788 156 5.92242 154.701 3.61063 152.39C1.29884 150.078 9.2916e-05 146.943 9.2916e-05 143.674V88.616C-0.00288017 88.3949 0.0655658 88.1787 0.195267 87.9997L33.6635 42.8031C34.4512 41.7442 35.4752 40.8836 36.654 40.2898C37.8327 39.696 39.1338 39.3854 40.4537 39.3826H141.516C142.836 39.3854 144.137 39.696 145.315 40.2898C146.494 40.8836 147.518 41.7442 148.306 42.8031L181.774 87.9997C181.904 88.1787 181.972 88.3949 181.969 88.616V143.694C181.964 146.953 180.668 150.076 178.366 152.382C176.064 154.688 172.942 155.989 169.683 156ZM2.07516 88.9549V143.694C2.07516 146.418 3.15745 149.031 5.08394 150.957C7.01043 152.884 9.62331 153.966 12.3478 153.966H169.683C172.408 153.966 175.021 152.884 176.947 150.957C178.874 149.031 179.956 146.418 179.956 143.694V88.9549L146.693 44.0152C146.097 43.2141 145.323 42.563 144.431 42.1136C143.539 41.6643 142.555 41.4291 141.557 41.4267H40.4742C39.4757 41.4291 38.4916 41.6643 37.6 42.1136C36.7083 42.563 35.9338 43.2141 35.3379 44.0152L2.07516 88.9549Z" fill="black"/>
<path d="M180.962 88.6163V143.694C180.962 146.691 179.772 149.565 177.653 151.684C175.534 153.803 172.659 154.994 169.662 154.994H12.327C9.33007 154.994 6.4559 153.803 4.33676 151.684C2.21762 149.565 1.0271 146.691 1.0271 143.694V88.6163H49.7296L54.3112 111.215C54.7258 113.246 55.8297 115.071 57.436 116.381C59.0422 117.692 61.0521 118.407 63.1251 118.405H119.46C121.56 118.403 123.594 117.669 125.211 116.328C126.827 114.987 127.925 113.124 128.315 111.061L132.547 88.5547L180.962 88.6163Z" fill="black"/>
<path d="M169.673 156.001H12.3271C9.05778 156.001 5.92232 154.702 3.61054 152.39C1.29875 150.079 0 146.944 0 143.674V88.6168C0 88.3443 0.108228 88.0831 0.300877 87.8904C0.493526 87.6978 0.754815 87.5896 1.02726 87.5896H49.7298C49.9701 87.5847 50.2045 87.6643 50.3922 87.8145C50.5799 87.9646 50.709 88.1758 50.757 88.4113L55.3386 111.01C55.7032 112.812 56.6793 114.434 58.102 115.6C59.5246 116.766 61.3063 117.405 63.1458 117.409H119.481C121.342 117.407 123.143 116.756 124.575 115.566C126.006 114.377 126.976 112.725 127.319 110.897L131.551 88.3908C131.597 88.1534 131.725 87.9398 131.913 87.7876C132.101 87.6354 132.337 87.5544 132.578 87.5588H180.973C181.245 87.5588 181.507 87.667 181.699 87.8596C181.892 88.0523 182 88.3135 182 88.586V143.664C182.001 145.284 181.684 146.888 181.065 148.384C180.446 149.881 179.538 151.241 178.393 152.387C177.248 153.532 175.889 154.441 174.393 155.061C172.896 155.682 171.293 156.001 169.673 156.001ZM2.07507 89.644V143.695C2.07507 146.419 3.15736 149.032 5.08385 150.958C7.01034 152.885 9.62322 153.967 12.3477 153.967H169.673C172.397 153.967 175.01 152.885 176.937 150.958C178.863 149.032 179.945 146.419 179.945 143.695V89.644H133.421L129.312 111.307C128.885 113.613 127.666 115.696 125.865 117.197C124.064 118.697 121.794 119.521 119.45 119.525H63.1458C60.8327 119.521 58.5918 118.719 56.8023 117.253C55.0128 115.788 53.7845 113.749 53.3252 111.482L48.8874 89.644H2.07507Z" fill="black"/>
<path d="M40.5665 132.549H20.391C20.1186 132.549 19.8573 132.44 19.6646 132.248C19.472 132.055 19.3638 131.794 19.3638 131.521C19.3638 131.249 19.472 130.988 19.6646 130.795C19.8573 130.602 20.1186 130.494 20.391 130.494H40.5665C40.8389 130.494 41.1002 130.602 41.2928 130.795C41.4855 130.988 41.5937 131.249 41.5937 131.521C41.5937 131.794 41.4855 132.055 41.2928 132.248C41.1002 132.44 40.8389 132.549 40.5665 132.549Z" fill="white"/>
<path d="M86.5779 65.9247C76.0073 66.767 66.8236 75.981 66.2689 86.3351C64.5226 74.8202 57.6502 67.9175 46.2476 65.8528C57.6399 63.7984 64.5123 56.906 66.2175 45.6582C67.9331 56.9573 74.8055 63.8704 86.5779 65.9247Z" fill="white"/>
<path d="M66.2687 87.3937C66.0209 87.3965 65.7805 87.3097 65.5918 87.1493C65.403 86.9888 65.2786 86.7656 65.2414 86.5206C63.567 75.4989 57.1158 68.9043 46.0522 66.891C45.7797 66.891 45.5184 66.7827 45.3258 66.5901C45.1331 66.3975 45.0249 66.1362 45.0249 65.8638C45.0249 65.5913 45.1331 65.3301 45.3258 65.1374C45.5184 64.9448 45.7797 64.8366 46.0522 64.8366C57.1055 62.8438 63.5156 56.3314 65.19 45.4945C65.2272 45.2496 65.3516 45.0263 65.5404 44.8659C65.7292 44.7054 65.9696 44.6186 66.2173 44.6214C66.465 44.6186 66.7054 44.7054 66.8942 44.8659C67.083 45.0263 67.2074 45.2496 67.2446 45.4945C68.8985 56.3417 75.4627 62.8746 86.7625 64.8982C87.035 64.9105 87.2914 65.0304 87.4754 65.2318C87.6594 65.4331 87.7558 65.6992 87.7436 65.9716C87.7313 66.2441 87.6113 66.5005 87.41 66.6844C87.2087 66.8684 86.9425 66.9649 86.6701 66.9526C76.5207 67.7641 67.8301 76.4952 67.3062 86.4076C67.2913 86.6606 67.1834 86.8992 67.0033 87.0774C66.8231 87.2556 66.5834 87.361 66.3303 87.3732L66.2687 87.3937ZM50.5413 65.9254C54.2246 66.9815 57.5836 68.9457 60.31 71.6379C63.0365 74.33 65.043 77.6638 66.1454 81.3333C67.3366 77.6901 69.3805 74.3839 72.1071 71.6897C74.8336 68.9954 78.1641 66.9911 81.8214 65.8432C73.9115 63.2752 68.6108 57.9955 66.2276 50.3429C63.8341 58.0879 58.5026 63.378 50.5413 65.9254Z" fill="black"/>
<path d="M137.633 41.0771C127.062 41.9296 117.879 51.1436 117.324 61.4977C115.577 49.9726 108.705 43.0801 97.3025 41.0154C108.695 38.9611 115.567 32.0686 117.272 20.8105C118.988 32.0789 125.86 38.9713 137.633 41.0771Z" fill="white"/>
<path d="M117.323 62.526C117.076 62.5289 116.835 62.442 116.646 62.2816C116.458 62.1211 116.333 61.8979 116.296 61.6529C114.622 50.6311 108.17 44.0263 97.1069 42.0233C96.8344 42.0233 96.5731 41.915 96.3805 41.7224C96.1878 41.5298 96.0796 41.2685 96.0796 40.9961C96.0796 40.7236 96.1878 40.4624 96.3805 40.2697C96.5731 40.0771 96.8344 39.9689 97.1069 39.9689C108.16 37.9761 114.57 31.474 116.255 20.6268C116.255 20.3544 116.363 20.0931 116.556 19.9005C116.749 19.7078 117.01 19.5996 117.282 19.5996C117.555 19.5996 117.816 19.7078 118.009 19.9005C118.201 20.0931 118.31 20.3544 118.31 20.6268C119.963 31.4842 126.528 38.0172 137.828 40.0408C138.1 40.053 138.356 40.173 138.54 40.3743C138.724 40.5756 138.821 40.8418 138.809 41.1142C138.796 41.3866 138.676 41.643 138.475 41.827C138.274 42.011 138.008 42.1074 137.735 42.0952C127.586 42.9066 118.895 51.6275 118.371 61.5399C118.371 61.8124 118.263 62.0736 118.07 62.2663C117.878 62.4589 117.616 62.5671 117.344 62.5671L117.323 62.526ZM101.596 41.0166C105.28 42.0729 108.641 44.0371 111.369 46.7291C114.097 49.4211 116.105 52.7547 117.21 56.4245C118.398 52.7823 120.44 49.4769 123.165 46.7841C125.89 44.0913 129.22 42.0892 132.876 40.9447C124.966 38.3664 119.666 33.0969 117.282 25.4443C114.889 33.2099 109.557 38.5103 101.596 41.0166Z" fill="black"/>
<path d="M91.0053 13.4455C84.5643 13.9591 78.9555 19.6087 78.6267 25.8951C77.5995 18.8691 73.3672 14.6679 66.4126 13.4045C73.3569 12.1513 77.5481 7.95005 78.5959 1.07812C79.6335 7.96032 83.8144 12.1616 91.0053 13.4455Z" fill="white"/>
<path d="M78.6786 26.892C78.4308 26.8948 78.1904 26.808 78.0017 26.6475C77.8129 26.4871 77.6885 26.2638 77.6513 26.0189C76.624 19.4859 72.8232 15.5723 66.2692 14.3911C66.0299 14.3473 65.8139 14.22 65.6597 14.0319C65.5054 13.8438 65.4229 13.6071 65.4269 13.3639C65.4229 13.1206 65.5054 12.8839 65.6597 12.6958C65.8139 12.5077 66.0299 12.3804 66.2692 12.3367C72.8232 11.1554 76.6446 7.29314 77.6205 0.873179C77.6576 0.628241 77.7821 0.404984 77.9708 0.244537C78.1596 0.0840896 78.4 -0.00273482 78.6478 6.56917e-05C78.8955 -0.00273482 79.1359 0.0840896 79.3247 0.244537C79.5134 0.404984 79.6379 0.628241 79.675 0.873179C80.7023 7.30341 84.5442 11.1451 91.2523 12.3778C91.5247 12.3914 91.7806 12.5127 91.9636 12.7149C92.1466 12.9172 92.2418 13.1839 92.2282 13.4563C92.2145 13.7287 92.0932 13.9846 91.891 14.1676C91.6887 14.3506 91.422 14.4458 91.1495 14.4321C85.253 14.9047 80.014 20.1639 79.7058 25.9162C79.6926 26.1796 79.5786 26.4279 79.3874 26.6095C79.1961 26.7912 78.9423 26.8923 78.6786 26.892ZM70.2961 13.3844C72.1886 14.08 73.9097 15.1736 75.3434 16.5912C76.7771 18.0088 77.8899 19.7175 78.6067 21.602C79.3864 19.7482 80.5261 18.0675 81.9596 16.657C83.3931 15.2465 85.0921 14.1342 86.9583 13.3844C85.0662 12.6882 83.3453 11.5944 81.9117 10.1769C80.4781 8.75935 79.3651 7.05094 78.6478 5.16685C77.9295 7.06905 76.8059 8.79216 75.3548 10.2165C73.9038 11.6409 72.16 12.7324 70.2447 13.4152L70.2961 13.3844Z" fill="black"/>
</svg>
