<svg width="115" height="115" viewBox="0 0 115 115" fill="none" xmlns="http://www.w3.org/2000/svg">
<path d="M57.5 115C89.2564 115 115 89.2564 115 57.5C115 25.7436 89.2564 0 57.5 0C25.7436 0 0 25.7436 0 57.5C0 89.2564 25.7436 115 57.5 115Z" fill="#D52017"/>
<path d="M76.1325 56.6162C76.1803 52.5615 74.634 48.6446 71.8149 45.6791C68.9959 42.7136 65.1207 40.9276 60.9944 40.6919C60.8593 39.0318 60.4691 37.4013 59.8373 35.8555C64.5875 36.2036 69.1309 37.904 72.9104 40.7483C76.6899 43.5925 79.5413 47.457 81.1149 51.8678C82.6885 56.2786 82.9159 61.044 81.7692 65.5797C80.6225 70.1155 78.1516 74.2244 74.6594 77.4025C71.1672 80.5807 66.8056 82.6901 62.1093 83.472C57.4131 84.2539 52.5863 83.6743 48.2209 81.8043C43.8554 79.9344 40.1411 76.8553 37.5333 72.9446C34.9255 69.034 33.5377 64.4617 33.5399 59.7886C33.5416 58.3904 33.6742 56.9953 33.9361 55.6209C36.8388 57.6904 40.3343 58.8063 43.9225 58.8089C44.1494 58.8242 44.3772 58.8242 44.6041 58.8089C45.1923 62.6772 47.2447 66.186 50.3522 68.636C53.4596 71.0861 57.394 72.2975 61.3713 72.0287C65.3485 71.7599 69.0764 70.0308 71.8121 67.1859C74.5479 64.341 76.0905 60.5893 76.1325 56.6784V56.6162Z" fill="white"/>
<path d="M40.9584 42.7135C41.7404 42.7073 42.5066 42.9292 43.1598 43.3509C43.8131 43.7726 44.3239 44.3752 44.6275 45.0822C44.9311 45.7892 45.0138 46.5687 44.8651 47.3219C44.7164 48.075 44.343 48.7679 43.7923 49.3125C43.2416 49.8572 42.5384 50.2291 41.7719 50.381C41.0054 50.533 40.2102 50.4582 39.4871 50.166C38.764 49.8739 38.1457 49.3776 37.7106 48.7402C37.2755 48.1027 37.0432 47.3528 37.0432 46.5857C37.0431 45.5641 37.4546 44.5838 38.188 43.8585C38.9213 43.1333 39.9171 42.7217 40.9584 42.7135Z" fill="white"/>
<path d="M50.5166 38.7326C53.3268 38.7326 55.6049 36.4976 55.6049 33.7407C55.6049 30.9837 53.3268 28.7488 50.5166 28.7488C47.7064 28.7488 45.4283 30.9837 45.4283 33.7407C45.4283 36.4976 47.7064 38.7326 50.5166 38.7326Z" fill="white"/>
</svg>
