<svg width="30" height="36" viewBox="0 0 30 36" fill="none" xmlns="http://www.w3.org/2000/svg">
<path d="M27.8555 0H2.14118C1.43002 0 0.855469 0.574554 0.855469 1.28571V34.7143C0.855469 35.4254 1.43002 36 2.14118 36H27.8555C28.5666 36 29.1412 35.4254 29.1412 34.7143V1.28571C29.1412 0.574554 28.5666 0 27.8555 0ZM26.2483 33.1071H3.74833V25.0312H7.68181C8.14788 26.3491 8.96752 27.5344 10.0564 28.4344C11.4425 29.5795 13.1983 30.2143 14.9983 30.2143C16.7983 30.2143 18.5541 29.5835 19.9403 28.4344C21.0291 27.5344 21.8488 26.3491 22.3148 25.0312H26.2483V22.5H20.2858L20.0769 23.4924C19.5948 25.8951 17.4573 27.6429 14.9983 27.6429C12.5394 27.6429 10.4019 25.8951 9.91574 23.4924L9.70681 22.5H3.74833V2.89286H26.2483V33.1071ZM7.28404 11.1295H22.7126C22.8894 11.1295 23.034 10.9848 23.034 10.808V8.87946C23.034 8.70268 22.8894 8.55804 22.7126 8.55804H7.28404C7.10725 8.55804 6.96261 8.70268 6.96261 8.87946V10.808C6.96261 10.9848 7.10725 11.1295 7.28404 11.1295ZM7.28404 17.558H22.7126C22.8894 17.558 23.034 17.4134 23.034 17.2366V15.308C23.034 15.1312 22.8894 14.9866 22.7126 14.9866H7.28404C7.10725 14.9866 6.96261 15.1312 6.96261 15.308V17.2366C6.96261 17.4134 7.10725 17.558 7.28404 17.558Z" fill="black" fill-opacity="0.85"/>
</svg>
