<svg width="378" height="63" viewBox="0 0 378 63" fill="none" xmlns="http://www.w3.org/2000/svg">
<path d="M70.7734 7.79576C70.7734 7.79576 70.8556 7.79576 70.8556 7.87782L58.3614 1.06679C58.2792 0.984731 58.1148 0.98473 58.0326 0.902669C57.9504 0.902669 57.9504 0.902668 57.9504 0.820607C57.786 0.738546 57.6216 0.656486 57.375 0.574425C57.2928 0.574425 57.2106 0.492366 57.1284 0.492366C56.8818 0.410305 56.6352 0.328245 56.3064 0.246185C56.2242 0.246185 56.2242 0.246185 56.2242 0.246185C55.9776 0.164124 55.731 0.164123 55.4844 0.0820626C55.4022 0.0820626 55.32 0.0820626 55.2378 0.0820626C55.0734 0.0820626 54.8268 0 54.6624 0C54.5802 0 54.498 0 54.3336 0C54.1692 0 53.9226 0 53.676 0C53.5938 0 53.5116 0 53.4294 0C53.1006 0 52.854 1.877e-06 52.5252 0.0820626L28.6053 3.44655L11.1791 5.90837C10.8503 5.99043 10.5215 5.99043 10.1927 6.07249C10.1105 6.07249 10.0283 6.15455 9.94609 6.15455C9.69949 6.23661 9.4529 6.31868 9.2063 6.40074C9.1241 6.40074 9.0419 6.4828 8.9597 6.4828C8.63091 6.56486 8.38431 6.72898 8.05552 6.8931C7.97332 6.8931 7.89111 6.97516 7.80892 7.05722C7.56232 7.22134 7.31572 7.3034 7.06912 7.46752C6.98692 7.54958 6.82252 7.63164 6.74032 7.71371C6.57593 7.79577 6.41153 7.87783 6.32933 7.95989C6.24713 7.95989 6.24713 8.04195 6.16493 8.04195C6.08273 8.12401 6.00053 8.12401 5.91833 8.20607C5.67174 8.37019 5.50734 8.53431 5.26074 8.69843C5.17854 8.78049 5.09634 8.7805 5.01414 8.86256L4.93195 8.94462C4.68535 9.10874 4.52095 9.35492 4.27435 9.51904C4.19215 9.6011 4.19215 9.6011 4.10996 9.68316C3.94556 9.84728 3.86336 9.92935 3.78116 10.0935C3.69896 10.1755 3.61676 10.2576 3.53456 10.3396C3.45237 10.4217 3.45236 10.5038 3.37016 10.5038C3.20576 10.75 2.95917 10.9961 2.79477 11.3244C2.79477 11.3244 2.79477 11.3244 2.79477 11.4064C2.79477 11.4885 2.71257 11.4885 2.71257 11.5706C2.54817 11.8167 2.38377 12.0629 2.21937 12.3091C2.13717 12.3912 2.13718 12.4732 2.05498 12.5553C1.97278 12.6373 1.97278 12.7194 1.89058 12.8015C1.80838 12.9656 1.72618 13.0476 1.64398 13.2118C1.56178 13.2938 1.56179 13.458 1.47959 13.54C1.39739 13.7862 1.23299 14.1144 1.15079 14.3606C1.15079 14.4427 1.06859 14.5247 1.06859 14.6068C1.06859 14.6068 1.06859 14.6068 1.06859 14.6889C0.986392 14.853 0.904189 15.0992 0.904189 15.2633C0.82199 15.4274 0.821992 15.5915 0.739793 15.7557C0.493196 15.9198 0.410996 16.0839 0.410996 16.3301C0.410996 16.4942 0.328798 16.6583 0.328798 16.8224C0.246599 17.0686 0.2466 17.3148 0.2466 17.643C0.2466 17.8072 0.164396 17.8892 0.164396 18.0534C0.0821966 18.4637 0.0821979 18.7919 0.0821979 19.2022C0.0821979 19.2022 0.0821979 19.2022 0.0821979 19.2843L0 42.4254C0 44.2307 0.410998 45.954 1.06859 47.4311C1.23299 47.8414 1.47958 48.2517 1.72618 48.5799C1.97278 48.9902 2.21937 49.3185 2.54817 49.6467C2.79477 49.975 3.12356 50.3032 3.45236 50.5494C3.61676 50.7135 3.78116 50.7956 3.94556 50.9597C4.27436 51.2059 4.68535 51.452 5.01414 51.6982L17.5084 58.5093L17.4262 58.4272C19.1524 59.4119 21.2074 59.8222 23.4267 59.494L47.3467 56.1295L64.7729 53.6677C70.8556 52.8471 75.7876 46.7746 75.7876 40.2918L75.8698 17.1507C75.952 12.8835 73.897 9.43698 70.7734 7.79576Z" fill="black"/>
<path d="M59.3475 31.7572V30.2801C59.3475 28.885 58.3612 27.9003 57.046 28.1465L41.5103 30.2801L32.4684 31.511C31.1533 31.6751 30.1669 32.9881 30.1669 34.301V35.7781C30.1669 37.1732 31.1533 38.1579 32.4684 37.9117L41.5103 36.5987L57.046 34.3831C58.3612 34.3831 59.3475 33.1522 59.3475 31.7572Z" fill="white" stroke="#161516" stroke-width="0.522599" stroke-miterlimit="10"/>
<path d="M60.9096 41.7687C63.54 41.4405 65.6772 38.8146 65.6772 36.0245V24.2898C65.6772 21.4998 63.54 19.4482 60.9096 19.8585L41.5928 22.5665L28.5232 24.3719C25.8928 24.7001 23.7556 27.3261 23.7556 30.1161V41.8508C23.7556 44.6409 25.8928 46.6103 28.5232 46.2821L41.5106 44.4767H41.5928L60.9096 41.7687ZM41.5928 28.9673L57.0462 26.8337C58.9368 26.5875 60.4986 27.9826 60.4986 30.1161V31.5932C60.4986 33.6447 58.9368 35.5321 57.0462 35.7783L41.5928 37.9119L32.3865 39.2249C30.4959 39.471 28.9342 38.076 28.9342 35.9424V34.4653C28.9342 32.4138 30.4959 30.5264 32.3865 30.2802L41.4284 29.0493L41.5928 28.9673Z" fill="white"/>
<path d="M65.4305 10.4218L41.5928 13.7863L24.0843 16.2481C19.8922 16.8225 16.522 20.9255 16.522 25.4389L16.4398 48.58C16.4398 53.0113 19.81 56.2116 23.9199 55.6372L41.5106 53.1754L65.3483 49.8109C69.5405 49.2365 72.9106 45.1334 72.9106 40.6201L72.9928 17.479C72.9928 13.0477 69.6227 9.84734 65.4305 10.4218ZM67.9787 35.6144C67.9787 39.7995 64.7729 43.6563 60.9095 44.2308L41.5928 46.9388L28.5231 48.7441C24.6597 49.3185 21.454 46.3643 21.454 42.0972V30.3625C21.454 26.1774 24.6597 22.3206 28.5231 21.7461L41.5928 19.9408L60.9095 17.2328C64.7729 16.6584 67.9787 19.6126 67.9787 23.8797V35.6144Z" fill="white"/>
<path d="M87.564 23.2591V16.9378H93.8959V8.08807H101.494V16.9378H109.816V23.4397H101.494V36.8047C101.494 38.2495 101.856 39.5138 102.399 40.4168C102.942 41.3199 104.027 41.6811 105.836 41.6811C106.56 41.6811 107.283 41.6811 108.007 41.5005C108.731 41.3199 109.454 41.1393 109.997 40.778V47.0993C109.273 47.4605 108.188 47.8217 107.102 47.8217C105.655 47.8217 104.751 48.0023 103.846 48.0023C101.856 48.0023 100.228 47.8217 98.9614 47.2799C97.695 46.9187 96.6096 46.1963 95.8859 45.2932C95.1623 44.3902 94.6195 43.3065 94.4386 41.8617C94.0768 40.5974 94.0768 38.972 94.0768 37.1659V23.2591H87.564Z" fill="black"/>
<path d="M142.199 47.2799H134.963V42.4035H134.782C134.058 43.8484 132.973 45.2933 131.526 46.3769C130.078 47.4605 128.088 48.0024 125.556 48.0024C123.566 48.0024 121.756 47.6411 120.309 47.0993C118.862 46.3769 117.776 45.4739 116.872 44.3902C115.967 43.3066 115.424 42.0423 114.882 40.5975C114.52 39.1526 114.339 37.7077 114.339 36.0823V16.9379H121.937V32.2895C121.937 33.1925 121.937 34.0956 122.118 35.1792C122.118 36.2629 122.48 37.1659 122.842 38.0689C123.204 38.972 123.746 39.6944 124.47 40.4168C125.194 40.9587 126.279 41.3199 127.546 41.3199C128.812 41.3199 129.897 41.1393 130.802 40.7781C131.707 40.4168 132.43 39.875 132.973 39.1526C133.516 38.4302 133.878 37.5271 134.239 36.6241C134.42 35.721 134.601 34.6374 134.601 33.7344V16.9379H142.199V47.2799Z" fill="black"/>
<path d="M170.241 25.9682C169.336 25.0652 168.432 24.3427 167.527 23.8009C166.623 23.2591 165.537 22.8979 164.633 22.8979C163.185 22.8979 161.919 23.0785 160.833 23.6203C159.748 24.1621 158.843 24.8846 157.939 25.607C157.215 26.51 156.492 27.4131 156.13 28.4967C155.768 29.5804 155.587 30.664 155.587 31.9283C155.587 33.1925 155.768 34.2762 156.13 35.3598C156.492 36.4434 157.034 37.3465 157.939 38.2495C158.662 39.1526 159.748 39.6944 160.833 40.2362C161.919 40.778 163.185 40.9586 164.633 40.9586C165.899 40.9586 166.984 40.778 167.889 40.2362C168.974 39.6944 169.698 38.972 170.422 38.0689L175.487 43.4871C174.764 44.2096 173.859 44.932 172.774 45.4738C171.869 46.0157 170.784 46.3769 169.698 46.7381C168.613 47.0993 167.708 47.2799 166.804 47.4605C165.899 47.6411 164.994 47.6411 164.452 47.6411C162.1 47.6411 160.11 47.2799 157.939 46.5575C155.768 45.835 154.14 44.7514 152.692 43.3065C151.245 41.8617 149.979 40.2362 149.255 38.2495C148.35 36.2628 147.989 34.0956 147.989 31.7477C147.989 29.3998 148.35 27.2325 149.255 25.2458C150.16 23.2591 151.245 21.6336 152.692 20.1888C154.14 18.7439 155.949 17.6603 157.939 16.9378C159.929 16.2154 162.1 15.8542 164.452 15.8542C166.442 15.8542 168.432 16.2154 170.241 16.9378C172.05 17.6603 173.859 18.9245 175.487 20.3694L170.241 25.9682Z" fill="black"/>
<path d="M197.739 43.1259H197.559C196.473 44.932 195.026 46.1962 193.398 46.9187C191.769 47.6411 189.779 48.0023 187.789 48.0023C186.342 48.0023 185.076 47.8217 183.628 47.4605C182.362 47.0993 181.096 46.5575 180.01 45.835C178.925 45.1126 178.201 44.2096 177.477 42.9453C176.754 41.8617 176.573 40.4168 176.573 38.9719C176.573 37.3465 176.935 35.9016 177.477 34.818C178.02 33.7343 178.925 32.6507 179.829 31.9283C180.734 31.2058 182 30.4834 183.267 30.1222C184.533 29.5804 185.98 29.3997 187.427 29.0385C188.875 28.8579 190.322 28.6773 191.769 28.6773C193.217 28.6773 194.483 28.4967 195.749 28.4967H197.559V27.5937C197.559 25.7876 196.835 24.3427 195.569 23.2591C194.302 22.356 192.674 21.8142 190.503 21.8142C188.875 21.8142 187.427 22.1754 185.98 22.7173C184.533 23.2591 183.447 23.9815 182.362 25.0652L178.382 21.0918C180.01 19.2857 182 18.2021 184.352 17.299C186.523 16.5766 188.875 16.2154 191.408 16.2154C193.579 16.2154 195.388 16.396 196.835 16.9378C198.282 17.4796 199.549 18.0215 200.453 18.7439C201.358 19.4663 202.262 20.3694 202.624 21.453C203.167 22.3561 203.529 23.4397 203.71 24.5233C203.89 25.607 204.071 26.51 204.071 27.4131C204.071 28.3161 204.071 29.2191 204.071 29.9416V47.4605H197.197V43.1259H197.739ZM197.378 33.5537H195.749C194.664 33.5537 193.578 33.5537 192.131 33.7343C190.684 33.9149 189.598 34.0955 188.513 34.2761C187.427 34.6374 186.342 34.9986 185.618 35.721C184.895 36.2628 184.352 37.1659 184.352 38.2495C184.352 38.9719 184.533 39.5138 184.895 40.0556C185.257 40.5974 185.618 40.9586 186.161 41.3198C186.704 41.6811 187.247 41.8617 187.789 42.0423C188.513 42.2229 189.056 42.2229 189.598 42.2229C192.131 42.2229 194.121 41.6811 195.388 40.4168C196.654 39.1526 197.197 37.5271 197.197 35.3598V33.5537H197.378Z" fill="black"/>
<path d="M211.489 16.9378H219.087V21.8142H219.268C220.173 20.0082 221.258 18.7439 222.886 17.6603C224.515 16.7572 226.324 16.2154 228.314 16.2154C228.856 16.2154 229.218 16.2154 229.761 16.396C230.123 16.396 230.666 16.5766 231.208 16.7572V24.1621C230.485 23.9815 229.942 23.8009 229.399 23.8009C228.856 23.6203 228.133 23.6203 227.59 23.6203C225.781 23.6203 224.334 23.9815 223.248 24.5233C222.163 25.2458 221.439 25.9682 220.715 26.6906C220.173 27.5937 219.811 28.3161 219.63 29.2191C219.449 30.1222 219.268 30.664 219.268 31.0252V47.2799H211.67V16.9378H211.489Z" fill="black"/>
<path d="M234.827 16.9378H242.063V21.453H242.244C243.329 19.6469 244.777 18.2021 246.767 17.4796C248.576 16.5766 250.566 16.2154 252.737 16.2154C255.089 16.2154 257.079 16.5766 259.069 17.4796C260.878 18.3827 262.506 19.4663 263.772 20.9112C265.039 22.356 266.124 23.9815 266.667 25.9682C267.391 27.9549 267.753 29.9416 267.753 32.2895C267.753 34.4568 267.391 36.624 266.667 38.6107C265.943 40.5974 264.858 42.2229 263.592 43.6677C262.325 45.1126 260.697 46.1962 258.888 47.0993C257.079 48.0023 255.089 48.3635 252.918 48.3635C251.47 48.3635 250.204 48.1829 249.119 48.0023C248.033 47.6411 247.129 47.2799 246.224 46.9187C245.319 46.3768 244.596 46.0156 244.053 45.4738C243.51 44.932 242.968 44.3902 242.606 43.8483H242.425V62.0897H234.827V16.9378ZM260.154 32.1089C260.154 30.8446 259.973 29.761 259.611 28.6773C259.25 27.5937 258.707 26.6906 257.802 25.7876C257.079 24.8846 255.993 24.3427 254.908 23.8009C253.822 23.2591 252.556 23.0785 251.109 23.0785C249.661 23.0785 248.576 23.2591 247.49 23.6203C246.405 24.1621 245.5 24.8846 244.596 25.607C243.872 26.51 243.148 27.4131 242.787 28.4967C242.425 29.5803 242.244 30.664 242.244 31.9282C242.244 33.1925 242.425 34.2761 242.787 35.3598C243.148 36.4434 243.691 37.3465 244.596 38.2495C245.319 39.1525 246.405 39.6944 247.49 40.2362C248.576 40.778 249.842 40.9586 251.29 40.9586C252.737 40.9586 254.003 40.778 255.089 40.2362C256.174 39.6944 257.079 38.9719 257.983 38.2495C258.707 37.3465 259.431 36.4434 259.792 35.3598C259.973 34.2761 260.154 33.1925 260.154 32.1089Z" fill="black"/>
<path d="M279.693 34.6374C279.874 36.9853 280.778 38.6107 282.406 39.875C284.035 41.1392 285.844 41.6811 287.834 41.6811C289.824 41.6811 291.271 41.3198 292.538 40.5974C293.804 39.875 294.889 38.7913 295.975 37.7077L301.402 41.8617C299.593 44.029 297.603 45.6544 295.432 46.5575C293.261 47.4605 290.909 48.0023 288.558 48.0023C286.206 48.0023 284.216 47.6411 282.045 46.9187C279.874 46.1962 278.246 45.1126 276.798 43.6677C275.351 42.2229 274.085 40.5974 273.361 38.6107C272.456 36.624 272.094 34.4568 272.094 32.1089C272.094 29.761 272.456 27.5937 273.361 25.607C274.265 23.6203 275.351 21.9948 276.798 20.55C278.246 19.1051 280.055 18.0215 282.045 17.299C284.035 16.5766 286.206 16.2154 288.558 16.2154C290.728 16.2154 292.538 16.5766 294.347 17.299C296.156 18.0215 297.603 19.1051 298.87 20.55C300.136 21.9948 301.04 23.6203 301.764 25.7876C302.488 27.7743 302.85 30.1222 302.85 32.8313V34.9986H279.693V34.6374ZM295.251 29.0385C295.251 26.8712 294.528 25.0652 293.08 23.8009C291.814 22.5367 289.824 21.8142 287.472 21.8142C285.12 21.8142 283.311 22.5367 282.045 23.8009C280.778 25.0652 279.874 26.8712 279.693 29.0385H295.251Z" fill="black"/>
<path d="M305.02 23.2591V16.9378H311.352V8.08807H318.951V16.9378H327.273V23.4397H318.951V36.8047C318.951 38.2495 319.312 39.5138 319.855 40.4168C320.398 41.3199 321.483 41.6811 323.293 41.6811C324.016 41.6811 324.74 41.6811 325.464 41.5005C326.187 41.3199 326.911 41.1393 327.454 40.778V47.0993C326.73 47.4605 325.644 47.8217 324.559 47.8217C323.473 48.0023 322.388 48.0023 321.483 48.0023C319.493 48.0023 317.865 47.8217 316.599 47.2799C315.332 46.9187 314.247 46.1963 313.523 45.2932C312.8 44.3902 312.257 43.3065 312.076 41.8617C311.714 40.5974 311.714 38.972 311.714 37.1659V23.2591H305.02Z" fill="black"/>
<path d="M350.972 43.1259H350.791C349.706 44.932 348.258 46.1962 346.63 46.9187C345.002 47.6411 343.012 48.0023 341.022 48.0023C339.575 48.0023 338.308 47.8217 336.861 47.4605C335.595 47.0993 334.328 46.5575 333.243 45.835C332.157 45.1126 331.434 44.2096 330.71 42.9453C329.986 41.8617 329.805 40.4168 329.805 38.9719C329.805 37.3465 330.167 35.9016 330.71 34.818C331.253 33.7343 332.157 32.6507 333.062 31.9283C333.966 31.2058 335.233 30.4834 336.499 30.1222C337.766 29.5804 339.213 29.3997 340.66 29.0385C342.107 28.8579 343.555 28.6773 345.002 28.6773C346.449 28.6773 347.716 28.4967 348.982 28.4967H350.791V27.5937C350.791 25.7876 350.068 24.3427 348.801 23.2591C347.535 22.356 345.907 21.8142 343.736 21.8142C342.107 21.8142 340.66 22.1754 339.213 22.7173C337.766 23.2591 336.68 23.9815 335.595 25.0652L331.615 21.0918C333.243 19.2857 335.233 18.2021 337.585 17.299C339.756 16.5766 342.107 16.2154 344.64 16.2154C346.811 16.2154 348.62 16.396 350.068 16.9378C351.515 17.4796 352.781 18.0215 353.686 18.7439C354.59 19.4663 355.495 20.3694 355.857 21.453C356.4 22.3561 356.761 23.4397 356.942 24.5233C357.123 25.607 357.304 26.51 357.304 27.4131C357.304 28.3161 357.304 29.2191 357.304 29.9416V47.4605H350.429V43.1259H350.972ZM350.61 33.5537H348.982C347.897 33.5537 346.811 33.5537 345.364 33.7343C343.917 33.9149 342.831 34.0955 341.746 34.2761C340.66 34.6374 339.575 34.9986 338.851 35.721C338.127 36.2628 337.585 37.1659 337.585 38.2495C337.585 38.9719 337.766 39.5138 338.127 40.0556C338.489 40.5974 338.851 40.9586 339.394 41.3198C339.937 41.6811 340.479 41.8617 341.022 42.0423C341.746 42.2229 342.288 42.2229 342.831 42.2229C345.364 42.2229 347.354 41.6811 348.62 40.4168C349.887 39.1526 350.429 37.5271 350.429 35.3598V33.5537H350.61Z" fill="black"/>
</svg>
